# Exported from Blender
v 25.000002 -40.040600 25.004694
v -24.999996 -40.728764 25.004694
v 25.144850 8.955985 25.105619
v -24.994593 9.440725 24.995111
v 25.025053 9.342451 -25.015409
v -25.072226 9.190267 -25.125813
v -24.999996 -40.040611 -24.997948
v 25.000002 -40.728764 -24.997948
v 20.321287 7.953031 20.325974
v -20.321289 7.953020 -20.319241
v -20.321289 7.953027 20.325974
v 20.321293 -39.772984 20.325979
v -20.321285 -39.772987 20.325979
v -20.321285 -39.772991 -20.319235
v 20.321287 7.953024 -20.319241
v 20.321293 -39.772987 -20.319235
v -7.977890 9.802630 0.026344
v -7.514478 9.802630 0.026344
v -7.514478 9.802632 11.640940
v -7.984766 9.802632 11.294756
v -11.722593 9.802627 -19.414637
v -0.582431 9.802628 -19.183649
v -7.746110 9.802628 -18.951775
v -11.722593 9.802627 -18.951660
v -4.169996 9.802632 13.914231
v -0.577255 9.802633 13.881128
v -0.591693 9.802633 14.404497
v -4.016179 9.802632 13.408216
v -7.966346 9.802632 12.051104
v -7.600651 9.802632 11.655724
v -11.153990 9.802631 9.254755
v -10.745416 9.802631 8.919555
v -13.808681 9.802630 4.288138
v -13.302931 9.802630 4.134810
v -14.336585 9.802629 0.133166
v -13.810697 9.802629 0.131700
v -13.808678 9.802629 -4.091316
v -13.302938 9.802629 -3.937937
v -10.746715 9.802629 -8.720913
v -11.153975 9.802629 -9.057925
v -7.977743 9.802629 -11.169785
v -7.977743 9.802629 -11.845719
v -7.514478 9.802629 -11.501040
v -7.514478 9.802629 -12.092684
v -4.165732 9.802629 -13.721340
v -4.019454 9.802629 -13.212453
v -0.621849 9.802629 -14.195386
v -0.606207 9.802629 -13.675636
v -11.722593 9.802633 19.540051
v -11.722593 9.802633 20.003431
v -7.989202 9.802633 19.540051
v -7.514478 9.802633 19.540037
v -0.567604 9.802634 19.774017
v -7.977743 9.802630 0.026344
v -7.983770 9.802632 12.069567
v -7.514478 9.802632 12.337013
v 7.977889 9.802631 0.026344
v 7.984765 9.802633 11.294756
v 7.514477 9.802633 11.640940
v 7.514477 9.802631 0.026344
v 11.722591 9.802629 -19.414637
v 0.582429 9.802628 -18.951965
v 0.582429 9.802628 -19.415331
v 7.746109 9.802629 -18.951775
v 11.722591 9.802629 -18.951660
v 4.169994 9.802634 13.914231
v 0.591692 9.802633 14.404497
v 0.577254 9.802633 13.881128
v 4.016177 9.802634 13.408216
v 7.966345 9.802633 12.051104
v 7.600650 9.802633 11.655724
v 11.153988 9.802634 9.254755
v 10.745414 9.802634 8.919555
v 13.808679 9.802633 4.288138
v 13.302928 9.802633 4.134810
v 14.336583 9.802632 0.133166
v 13.810695 9.802632 0.131700
v 13.808675 9.802631 -4.091316
v 13.302936 9.802632 -3.937937
v 10.746713 9.802630 -8.720913
v 11.153974 9.802630 -9.057925
v 7.977742 9.802630 -11.169785
v 7.977742 9.802630 -11.845719
v 7.514477 9.802630 -11.501040
v 7.514477 9.802630 -12.092684
v 4.165730 9.802629 -13.721340
v 4.019453 9.802629 -13.212453
v 0.621847 9.802629 -14.195386
v 0.606205 9.802629 -13.675636
v 11.722591 9.802635 19.540051
v 11.722591 9.802635 20.003431
v 7.989201 9.802635 19.540051
v 7.514477 9.802635 19.540037
v 0.567603 9.802634 19.774017
v 7.977742 9.802631 0.026344
v 7.983769 9.802633 12.069567
v 7.514477 9.802634 12.337013
v -22.708313 9.802626 -24.194214
v -22.708313 9.802633 24.200945
v -23.708313 9.802633 24.200945
v -23.708313 9.802626 -24.194214
v 22.708313 9.802629 -24.194214
v 23.708313 9.802629 -24.194214
v 23.708313 9.802636 24.200945
v 22.708313 9.802636 24.200945
v 0.478384 9.802624 0.026344
v -0.521616 9.802624 0.026344
v -0.521600 9.802620 -24.194214
v 0.478400 9.802620 -24.194214
v 0.478369 9.802628 24.200945
v -0.521631 9.802628 24.200945
v -0.521616 9.802624 0.026344
v 0.478384 9.802624 0.026344
v -21.760588 9.802626 -24.194214
v -21.760588 9.802633 24.200939
v -22.718849 9.802633 24.200939
v -22.718849 9.802626 -24.194214
v 21.760588 9.802629 -24.194214
v 22.718849 9.802629 -24.194214
v 22.718849 9.802636 24.200939
v 21.760588 9.802636 24.200939
v 25.000002 -40.040600 25.004694
v -24.999996 -40.728764 25.004694
v -25.000000 7.953027 25.004686
v 24.964983 9.470711 24.987492
v 25.000000 7.953032 25.004686
v -24.924894 9.595282 24.810665
v 25.000000 7.953024 -24.997953
v -24.893051 9.568124 -24.891005
v -25.000000 7.953019 -24.997952
v 24.964420 9.504759 -24.962376
v 25.000002 -40.728764 -24.997948
v -24.999996 -40.040611 -24.997948
v 20.321287 7.953031 20.325974
v -20.321289 7.953020 -20.319241
v -20.321289 7.953027 20.325974
v -20.321285 -39.772987 20.325979
v 20.321293 -39.772984 20.325979
v -20.321285 -39.772991 -20.319235
v 20.321287 7.953024 -20.319241
v 20.321293 -39.772987 -20.319235
vn 0.707020 0.015286 0.707029
vn -0.707015 -0.015287 0.707034
vn 0.707039 -0.014945 0.707016
vn -0.707205 0.013714 0.706876
vn 0.707054 0.011006 -0.707074
vn -0.706893 -0.008422 -0.707270
vn -0.707020 0.015286 -0.707029
vn 0.707015 -0.015287 -0.707034
vn -0.707107 0.000000 0.707107
vn 0.101274 0.000000 0.994859
vn 0.707089 0.000000 0.707124
vn 0.101269 0.000000 0.994859
vn -0.101274 0.000000 0.994859
vn -0.707090 0.000000 0.707124
vn -0.101269 0.000000 0.994859
vn 0.707107 0.000000 0.707107
vn 0.000000 1.000000 -0.000000
vn -0.000000 1.000000 -0.000000
vn 0.000000 1.000000 -0.000000
vn 0.000000 1.000000 -0.000000
vn -0.000000 1.000000 0.000000
vn -0.000000 1.000000 0.000004
vn -0.000000 1.000000 0.000003
vn -0.000000 1.000000 0.000000
vn -0.000000 1.000000 -0.000000
vn -0.000000 1.000000 -0.000000
vn -0.000000 1.000000 -0.000001
vn -0.000000 1.000000 -0.000000
vn -0.000000 1.000000 -0.000000
vn -0.000000 1.000000 -0.000000
vn -0.000000 1.000000 -0.000000
vn -0.000000 1.000000 -0.000000
vn -0.000000 1.000000 -0.000000
vn -0.000000 1.000000 -0.000000
vn -0.000000 1.000000 0.000000
vn -0.000000 1.000000 0.000000
vn 0.000000 1.000000 -0.000000
vn 0.000000 1.000000 -0.000000
vn 0.000000 1.000000 0.000000
vn 0.000000 1.000000 0.000000
vn -0.000000 1.000000 -0.000000
vn -0.000000 1.000000 0.000000
vn -0.000000 1.000000 -0.000000
vn -0.000000 1.000000 0.000000
vn 0.000000 1.000000 -0.000001
vn 0.000000 1.000000 -0.000001
vn 0.000000 1.000000 -0.000000
vn 0.000000 1.000000 0.000000
vn 0.000000 1.000000 0.000000
vn -0.000000 1.000000 0.000000
vn -0.000000 1.000000 0.000000
vn -0.000000 1.000000 -0.000000
vn -0.000000 1.000000 0.000000
vn 0.000000 1.000000 -0.000000
vn 0.000000 1.000000 -0.000000
vn 0.000000 1.000000 -0.000000
vn -0.000000 1.000000 -0.000000
vn -0.000000 1.000000 -0.000000
vn -0.000000 1.000000 -0.000000
vn 0.000000 1.000000 -0.000000
vn -0.000000 1.000000 -0.000000
vn -0.000000 1.000000 -0.000000
vn -0.000000 1.000000 0.000000
vn -0.000000 1.000000 -0.000004
vn -0.000000 1.000000 0.000000
vn -0.000000 1.000000 0.000000
vn -0.000000 1.000000 0.000003
vn -0.000000 1.000000 0.000003
vn -0.000000 1.000000 0.000000
vn -0.000000 1.000000 0.000000
vn 0.000000 1.000000 0.000000
vn -0.000000 1.000000 0.000000
vn -0.000000 1.000000 0.000000
vn 0.000000 1.000000 -0.000000
vn 0.000000 1.000000 -0.000000
vn 0.000000 1.000000 -0.000001
vn 0.000000 1.000000 -0.000001
vn 0.000002 1.000000 -0.000000
vn 0.000002 1.000000 -0.000000
vn -0.000000 1.000000 -0.000000
vn -0.000000 1.000000 -0.000000
vn 0.000000 1.000000 -0.000000
vn 0.000000 1.000000 -0.000000
vn -0.000000 1.000000 -0.000000
vn -0.000000 1.000000 -0.000000
vn -0.000000 1.000000 0.000001
vn -0.000000 1.000000 0.000001
vn -0.000000 1.000000 0.000000
vn -0.000000 1.000000 0.000000
vn 0.000000 1.000000 0.000000
vn -0.000000 1.000000 0.000000
vn 0.000000 1.000000 -0.000000
vn -0.000000 1.000000 -0.000000
vn -0.000000 1.000000 0.000000
vn 0.000000 1.000000 0.000000
vn 0.000002 1.000000 -0.000000
vn 0.000002 1.000000 -0.000000
vn 0.000000 1.000000 -0.000000
vn 0.000000 1.000000 -0.000000
vn 0.000000 1.000000 -0.000000
vn 0.000000 1.000000 -0.000000
vn 0.000000 1.000000 -0.000000
vn 0.000000 1.000000 -0.000000
vn 0.000000 1.000000 -0.000000
vn 0.000000 1.000000 -0.000000
vn 0.000000 1.000000 -0.000000
vn 0.000000 1.000000 -0.000000
vn 0.000000 1.000000 -0.000000
vn 0.000000 1.000000 -0.000000
vn 0.000000 1.000000 -0.000000
vn 0.000000 1.000000 -0.000000
vn 0.000000 1.000000 -0.000000
vn 0.000000 1.000000 -0.000000
vn 0.000000 1.000000 -0.000000
vn 0.000000 1.000000 -0.000000
vn 0.000000 1.000000 -0.000000
vn 0.000000 1.000000 -0.000000
vn 0.000000 1.000000 -0.000000
vn 0.000000 1.000000 -0.000000
vn 0.000000 1.000000 -0.000000
vn 0.000000 1.000000 -0.000000
vn 0.707020 0.015286 0.707029
vn -0.707015 -0.015287 0.707034
vn -0.688469 0.114564 0.716161
vn 0.571276 0.585387 0.575297
vn 0.709491 0.024349 0.704294
vn -0.568872 0.620402 0.539894
vn 0.706240 0.033047 -0.707201
vn -0.558740 0.612203 -0.559479
vn -0.703822 0.092923 -0.704273
vn 0.571282 0.588907 -0.571687
vn 0.707015 -0.015287 -0.707034
vn -0.707020 0.015286 -0.707029
vn 0.707089 0.000000 0.707124
vn -0.707107 -0.000000 -0.707107
vn -0.707124 0.000000 0.707090
vn -0.707090 0.000000 0.707124
vn 0.707124 0.000000 0.707090
vn -0.707107 -0.000000 -0.707107
vn 0.707107 -0.000000 -0.707107
vn 0.707107 0.000000 -0.707107
f 5//5 4//4 3//3
f 5//5 6//6 4//4
f 6//6 3//3 4//4
f 3//3 6//6 5//5
f 8//8 2//2 7//7
f 8//8 1//1 2//2
f 7//7 2//2 1//1
f 8//8 7//7 1//1
f 13//13 12//12 11//11
f 11//11 12//12 9//9
f 14//14 13//13 10//10
f 12//12 16//16 15//15
f 14//14 15//15 10//10
f 16//16 15//15 14//14
f 10//10 11//11 13//13
f 12//12 9//9 15//15
f 17//17 19//19 18//18
f 17//17 20//20 19//19
f 21//21 23//23 22//22
f 21//21 24//24 23//23
f 25//25 27//27 26//26
f 25//25 26//26 28//28
f 28//28 29//29 25//25
f 28//28 30//30 29//29
f 30//30 31//31 29//29
f 30//30 32//32 31//31
f 32//32 33//33 31//31
f 32//32 34//34 33//33
f 34//34 35//35 33//33
f 34//34 36//36 35//35
f 36//36 37//37 35//35
f 36//36 38//38 37//37
f 39//39 37//37 38//38
f 39//39 40//40 37//37
f 41//41 40//40 39//39
f 41//41 42//42 40//40
f 43//43 42//42 41//41
f 43//43 44//44 42//42
f 45//45 44//44 43//43
f 45//45 43//43 46//46
f 47//47 45//45 46//46
f 47//47 46//46 48//48
f 23//23 42//42 44//44
f 49//49 50//50 51//51
f 51//51 50//50 52//52
f 52//52 50//50 53//53
f 41//41 18//18 43//43
f 41//41 54//54 18//18
f 55//55 52//52 56//56
f 55//55 51//51 52//52
f 57//57 59//59 58//58
f 57//57 60//60 59//59
f 61//61 63//63 62//62
f 61//61 62//62 64//64
f 61//61 64//64 65//65
f 66//66 68//68 67//67
f 66//66 69//69 68//68
f 69//69 66//66 70//70
f 69//69 70//70 71//71
f 71//71 70//70 72//72
f 71//71 72//72 73//73
f 73//73 72//72 74//74
f 73//73 74//74 75//75
f 75//75 74//74 76//76
f 75//75 76//76 77//77
f 77//77 76//76 78//78
f 77//77 78//78 79//79
f 80//80 79//79 78//78
f 80//80 78//78 81//81
f 82//82 80//80 81//81
f 82//82 81//81 83//83
f 84//84 82//82 83//83
f 84//84 83//83 85//85
f 86//86 84//84 85//85
f 86//86 87//87 84//84
f 88//88 87//87 86//86
f 88//88 89//89 87//87
f 64//64 85//85 83//83
f 90//90 92//92 91//91
f 92//92 93//93 91//91
f 93//93 94//94 91//91
f 82//82 60//60 95//95
f 82//82 84//84 60//60
f 96//96 93//93 92//92
f 96//96 97//97 93//93
f 98//98 100//100 99//99
f 98//98 101//101 100//100
f 102//102 104//104 103//103
f 102//102 105//105 104//104
f 106//106 108//108 107//107
f 106//106 109//109 108//108
f 110//110 112//112 111//111
f 110//110 113//113 112//112
f 114//114 116//116 115//115
f 114//114 117//117 116//116
f 118//118 120//120 119//119
f 118//118 121//121 120//120
f 124//124 126//126 125//125
f 124//124 125//125 127//127
f 128//128 130//130 129//129
f 128//128 129//129 131//131
f 130//130 127//127 129//129
f 130//130 124//124 127//127
f 131//131 127//127 125//125
f 131//131 129//129 127//127
f 126//126 131//131 125//125
f 126//126 128//128 131//131
f 132//132 123//123 133//133
f 132//132 122//122 123//123
f 133//133 123//123 122//122
f 132//132 133//133 122//122
f 137//137 138//138 134//134
f 137//137 134//134 136//136
f 139//139 135//135 140//140
f 141//141 139//139 140//140
f 139//139 136//136 135//135
f 139//139 137//137 136//136
f 138//138 140//140 134//134
f 138//138 141//141 140//140
