# Exported from Blender
v 12.289302 1.499999 -10.504335
v 12.289286 1.500000 -9.504084
v 9.565037 1.500003 11.992037
v 10.750777 1.500003 10.732925
v 10.750777 1.500003 11.993026
v 12.413371 -1.500000 -10.627557
v 12.413370 1.376783 11.983752
v 12.413370 1.376782 10.732925
v 6.243690 1.376782 10.609706
v 12.413370 1.376782 6.362253
v 12.413370 1.376782 5.300390
v 12.413370 -1.499999 -3.194515
v 12.413370 -1.499999 -2.132652
v 12.289268 1.500000 -8.503831
v 12.289216 1.500000 -7.441967
v 10.750777 1.499999 -10.627557
v 12.288980 1.500000 -4.256378
v 12.288842 1.500000 -3.194515
v 12.288310 1.500001 -0.008926
v 12.288039 1.500001 1.052937
v 10.750777 1.500001 2.844831
v 12.287042 1.500002 4.238527
v 12.286552 1.500002 5.300390
v 10.627557 -1.500001 -10.627557
v 10.627557 1.376782 10.609706
v 3.190579 1.500002 11.988461
v 2.557312 1.500002 10.732925
v 4.252989 1.500002 11.988727
v 7.440217 1.500003 11.990349
v 8.502627 1.500003 11.991047
v 2.062000 -1.499998 12.106973
v 5.315398 1.500002 11.989189
v 6.376648 1.500002 10.732925
v 6.377809 1.500003 11.989651
v 1.065760 1.500002 11.988112
v 2.128169 1.500002 11.988199
v 1.195600 1.376781 10.609706
v 12.284757 1.500002 8.485979
v 12.283889 1.500003 9.558111
v 0.003639 1.376782 12.106973
v 12.413370 1.376782 8.485979
v 12.413370 1.376782 7.424116
v 10.627557 1.376781 0.123807
v 12.287769 1.500001 2.114800
v 12.287407 1.500002 3.176663
v 12.288702 1.500001 -2.132652
v 12.288507 1.500001 -1.070789
v 12.289164 1.500000 -6.380104
v 12.289072 1.500000 -5.318240
v 12.413370 1.376782 9.558111
v 10.627557 1.376779 -10.627557
v 12.413370 -1.500000 -5.318240
v 12.413370 -1.500000 -4.256378
v 12.413371 -1.499997 12.106973
v 12.413371 1.376779 -10.627557
v 0.000000 -1.499998 12.106973
v 10.627557 -1.499997 10.609706
v 12.286063 1.500002 6.362253
v 12.285410 1.500002 7.424116
v 12.283021 1.500003 10.732925
v -0.000000 1.500002 11.988029
v 12.280713 1.500003 11.995750
v 10.627557 1.499999 -10.627557
v 10.627557 1.500003 10.609706
v 12.413371 1.500003 12.106973
v 0.003350 1.500002 11.988029
v 0.003639 1.500002 12.106973
v 12.413371 1.499999 -10.627557
v -10.627557 1.500001 10.609706
v -6.750116 1.376781 12.106973
v -10.750777 1.499998 -7.993058
v -12.289286 1.499997 -9.504084
v -12.289302 1.499997 -10.504335
v -9.565037 1.500001 11.992037
v -10.750777 1.500001 11.993026
v -10.750777 1.500001 10.732925
v -12.413370 1.376777 -9.504084
v -12.413370 1.376778 -8.503831
v -12.413370 1.376780 10.732925
v -12.413370 1.376781 11.983752
v -12.413371 -1.499999 12.106973
v -12.413370 1.376780 5.300390
v -12.413370 1.376780 6.362253
v -12.413371 -1.500003 -10.627557
v -12.413370 1.376779 1.052937
v -12.413370 1.376779 2.114800
v -12.413370 1.376778 -3.194515
v -12.413370 1.376778 -2.132652
v -12.413370 1.376778 -7.441967
v -12.413370 1.376778 -6.380104
v -12.289216 1.499998 -7.441967
v -12.289268 1.499998 -8.503831
v -12.288842 1.499998 -3.194515
v -12.288980 1.499998 -4.256378
v -12.288039 1.499999 1.052937
v -12.288310 1.499999 -0.008926
v -10.750777 1.499999 2.844831
v -12.286552 1.500000 5.300390
v -12.287042 1.500000 4.238527
v -3.885701 1.376781 10.609706
v -10.627557 1.376777 -10.627557
v -10.627557 -1.499999 10.609706
v -10.627557 1.376780 10.609706
v -3.190579 1.500002 11.988461
v -4.252989 1.500002 11.988727
v -8.500405 1.500001 11.991046
v -2.792386 -1.499998 12.106973
v -5.315398 1.500001 11.989189
v -6.377809 1.500001 11.989651
v -6.376648 1.500001 10.732925
v -5.313922 1.500001 10.732925
v -1.065760 1.500002 11.988112
v -2.128170 1.500002 11.988199
v -12.283889 1.500000 9.558111
v -12.284757 1.500000 8.485979
v -12.413370 1.376780 7.424116
v -12.413370 1.376780 8.485979
v -10.627557 1.376779 0.024257
v -12.413371 1.499997 -10.627557
v -10.627557 -1.500003 -10.627557
v -12.287407 1.499999 3.176663
v -12.287769 1.499999 2.114800
v -12.288507 1.499999 -1.070789
v -12.288702 1.499999 -2.132652
v -12.289072 1.499998 -5.318240
v -12.289164 1.499998 -6.380104
v -12.413370 1.376780 9.558111
v -12.413370 1.376778 -5.318240
v -12.413370 1.376778 -4.256378
v -12.413370 1.376778 -1.070789
v -12.413370 1.376779 -0.008926
v -12.413370 1.376779 3.176663
v -12.413370 1.376779 4.238527
v -12.413370 -1.500000 4.238527
v -12.285410 1.500000 7.424116
v -12.286063 1.500000 6.362253
v -12.283021 1.500000 10.732925
v -12.413370 1.376777 -10.504335
v -12.280713 1.500001 11.995750
v -10.627557 1.499997 -10.627557
v -12.413371 1.500001 12.106973
v -0.003350 1.500002 11.988029
v -0.003639 1.500002 12.106973
v -0.003639 1.376782 12.106973
v 12.413371 -2.540045 12.106970
v -12.413371 -2.540047 12.106970
v 12.413370 -2.540050 -14.627557
v 12.413370 -1.624318 -13.113901
v -12.413371 -1.624320 -13.113902
v 0.000000 -2.540051 -14.627557
v -12.413370 -2.540052 -14.627557
v 12.413370 0.520027 11.367263
v 12.413371 -0.520022 11.367263
v 0.000000 -0.520023 11.367263
v -0.000000 0.520026 11.367263
v 0.000000 -0.520026 -11.367263
v -0.000000 0.520023 -11.367263
v -0.000000 0.395705 -13.853609
v 0.000000 -0.520027 -15.367263
v 12.413370 0.520024 -11.367263
v 12.413370 -0.520025 -15.367263
v 12.413370 0.395706 -13.853609
v -12.413370 0.520025 11.367263
v -12.413371 -0.520024 11.367263
v -12.413370 0.520022 -11.367263
v -12.413370 -0.520028 -15.367263
v -12.413370 0.395704 -13.853609
vn -0.000000 1.000000 -0.000000
vn 0.000000 1.000000 -0.000000
vn -0.000000 1.000000 0.000000
vn -0.000000 1.000000 -0.000000
vn -0.000000 1.000000 -0.000000
vn 0.795915 0.535962 -0.281539
vn 1.000000 -0.000008 -0.000003
vn 1.000000 0.000000 -0.000000
vn 0.000000 0.000000 -1.000000
vn 1.000000 -0.000003 -0.000000
vn 1.000000 0.000001 0.000000
vn 1.000000 0.000001 0.000000
vn 1.000000 -0.000001 -0.000000
vn -0.000000 1.000000 -0.000000
vn 0.000000 1.000000 -0.000000
vn -0.000000 0.707085 -0.707129
vn -0.000000 1.000000 -0.000000
vn 0.000000 1.000000 -0.000000
vn -0.000000 1.000000 -0.000000
vn -0.000000 1.000000 -0.000000
vn -0.000000 1.000000 -0.000000
vn -0.000000 1.000000 -0.000000
vn -0.000000 1.000000 -0.000000
vn -0.707087 0.000000 -0.707127
vn -0.707107 0.000000 -0.707106
vn -0.000000 1.000000 -0.000000
vn -0.000000 1.000000 0.000001
vn -0.000000 1.000000 -0.000001
vn -0.000000 1.000000 0.000001
vn -0.000000 1.000000 -0.000001
vn 0.000000 0.000000 1.000000
vn -0.000000 1.000000 -0.000000
vn -0.000000 1.000000 -0.000000
vn -0.000000 1.000000 -0.000000
vn -0.000000 1.000000 -0.000001
vn -0.000000 1.000000 -0.000000
vn -0.000000 0.000000 -1.000000
vn 0.000000 1.000000 -0.000000
vn -0.000000 1.000000 -0.000000
vn 0.000000 0.000000 1.000000
vn 1.000000 0.000000 -0.000000
vn 1.000000 0.000002 -0.000000
vn -1.000000 0.000000 0.000000
vn -0.000000 1.000000 -0.000000
vn -0.000000 1.000000 -0.000000
vn -0.000000 1.000000 -0.000000
vn 0.000000 1.000000 -0.000000
vn -0.000000 1.000000 -0.000000
vn -0.000000 1.000000 -0.000000
vn 1.000000 0.000000 -0.000000
vn -0.707107 0.000000 -0.707107
vn 1.000000 0.000000 0.000000
vn 1.000000 0.000004 0.000000
vn 0.666633 0.333363 0.666685
vn 0.707088 0.000000 -0.707125
vn -0.000000 0.447213 0.894428
vn -0.707127 0.000000 -0.707087
vn 0.000000 1.000000 -0.000000
vn -0.000000 1.000000 -0.000000
vn -0.000000 1.000000 -0.000000
vn -0.000000 1.000000 -0.000000
vn -0.000000 1.000000 -0.000000
vn -0.577346 0.577350 -0.577355
vn -0.301516 0.904530 -0.301518
vn 0.577364 0.577352 0.577335
vn -0.000000 1.000000 -0.000001
vn -0.000000 0.707653 0.706560
vn 0.577340 0.577373 -0.577338
vn 0.301516 0.904530 -0.301518
vn -0.000000 0.000000 1.000000
vn -0.000000 1.000000 -0.000000
vn -0.000000 1.000000 -0.000000
vn -0.000000 1.000000 -0.000001
vn -0.000000 1.000000 -0.000000
vn -0.000000 1.000000 -0.000000
vn -0.000000 1.000000 -0.000000
vn -1.000000 -0.000000 -0.000000
vn -1.000000 0.000000 -0.000000
vn -1.000000 0.000000 -0.000000
vn -1.000000 -0.000008 -0.000003
vn -0.666645 0.333346 0.666683
vn -1.000000 -0.000001 -0.000000
vn -1.000000 -0.000003 -0.000000
vn -0.795895 0.535986 -0.281550
vn -1.000000 0.000002 -0.000000
vn -1.000000 -0.000007 -0.000000
vn -1.000000 0.000001 -0.000000
vn -1.000000 0.000000 -0.000000
vn -1.000000 0.000001 -0.000000
vn -1.000000 -0.000002 -0.000000
vn -0.000000 1.000000 0.000000
vn -0.000000 1.000000 -0.000000
vn -0.000000 1.000000 -0.000000
vn -0.000000 1.000000 -0.000000
vn 0.000000 1.000000 0.000000
vn 0.000000 1.000000 -0.000000
vn -0.000000 1.000000 -0.000000
vn 0.000000 1.000000 -0.000000
vn -0.000000 1.000000 -0.000000
vn -0.000000 0.000000 -1.000000
vn 0.707107 0.000000 -0.707107
vn 0.707120 0.000000 -0.707094
vn 0.707107 0.000000 -0.707107
vn -0.000000 1.000000 0.000000
vn -0.000000 1.000000 -0.000000
vn -0.000000 1.000000 -0.000000
vn 0.000000 0.000000 1.000000
vn -0.000000 1.000000 -0.000000
vn -0.000000 1.000000 -0.000000
vn -0.000000 1.000000 -0.000000
vn -0.000000 1.000000 -0.000000
vn -0.000000 1.000000 -0.000001
vn -0.000000 1.000000 -0.000000
vn -0.000000 1.000000 -0.000000
vn -0.000000 1.000000 -0.000000
vn -1.000000 0.000002 -0.000000
vn -1.000000 0.000000 -0.000000
vn 1.000000 0.000000 0.000000
vn -0.577362 0.577362 -0.577327
vn 0.707093 0.000000 -0.707120
vn -0.000000 1.000000 -0.000000
vn -0.000000 1.000000 -0.000000
vn -0.000000 1.000000 -0.000000
vn 0.000000 1.000000 -0.000001
vn -0.000000 1.000000 -0.000000
vn -0.000000 1.000000 -0.000000
vn -1.000000 0.000000 -0.000000
vn -1.000000 0.000002 -0.000000
vn -1.000000 -0.000002 -0.000000
vn -1.000000 -0.000002 -0.000000
vn -1.000000 0.000002 -0.000000
vn -1.000000 0.000000 -0.000000
vn -1.000000 0.000000 0.000000
vn -1.000000 0.000000 -0.000000
vn -0.000000 1.000000 -0.000000
vn -0.000000 1.000000 -0.000000
vn -0.000000 1.000000 -0.000000
vn -1.000000 -0.000002 0.000003
vn -0.000000 1.000000 0.000001
vn 0.577348 0.577354 -0.577348
vn -0.577361 0.577350 0.577340
vn -0.000000 1.000000 -0.000001
vn -0.000000 0.707653 0.706560
vn -0.000000 0.000000 1.000000
vn 0.707113 -0.000002 0.707100
vn -0.707108 -0.000002 0.707106
vn 0.327238 0.808499 -0.489126
vn 0.655981 0.721729 -0.220898
vn -0.655985 0.721726 -0.220898
vn -0.000000 0.855607 -0.517626
vn -0.327243 0.808498 -0.489125
vn 0.577351 0.577340 0.577360
vn 0.707113 0.000000 0.707101
vn -0.447208 -0.000000 0.894430
vn -0.333338 0.666665 0.666665
vn -1.000000 -0.000000 0.000000
vn -0.441620 0.896922 -0.022409
vn -0.398543 0.876992 -0.268421
vn -0.170646 0.843057 -0.510034
vn 0.701527 0.712421 -0.017800
vn 0.327244 0.808497 -0.489125
vn 0.655987 0.721723 -0.220900
vn -0.577351 0.577340 0.577360
vn -0.707113 0.000000 0.707101
vn -0.701527 0.712421 -0.017800
vn -0.327244 0.808497 -0.489125
vn -0.655987 0.721723 -0.220900
f 16//16 2//2 1//1
f 3//3 5//5 4//4
f 54//54 8//8 7//7
f 57//57 9//9 25//25
f 54//54 11//11 10//10
f 12//12 55//55 13//13
f 16//16 15//15 14//14
f 21//21 17//17 16//16
f 21//21 18//18 17//17
f 21//21 20//20 19//19
f 21//21 23//23 22//22
f 26//26 28//28 27//27
f 29//29 30//30 4//4
f 32//32 33//33 27//27
f 32//32 34//34 33//33
f 35//35 36//36 27//27
f 57//57 102//102 37//37
f 4//4 39//39 38//38
f 54//54 42//42 41//41
f 21//21 45//45 44//44
f 21//21 47//47 46//46
f 16//16 49//49 48//48
f 54//54 50//50 8//8
f 52//52 55//55 53//53
f 31//31 70//70 56//56
f 31//31 40//40 70//70
f 21//21 59//59 58//58
f 24//24 57//57 25//25
f 4//4 59//59 21//21
f 4//4 38//38 59//59
f 13//13 55//55 54//54
f 6//6 55//55 52//52
f 54//54 41//41 50//50
f 16//16 17//17 49//49
f 21//21 19//19 47//47
f 21//21 22//22 45//45
f 24//24 43//43 51//51
f 54//54 10//10 42//42
f 4//4 60//60 39//39
f 24//24 25//25 43//43
f 21//21 58//58 23//23
f 21//21 44//44 20//20
f 21//21 46//46 18//18
f 16//16 48//48 15//15
f 53//53 55//55 12//12
f 54//54 55//55 11//11
f 16//16 14//14 2//2
f 57//57 37//37 9//9
f 61//61 35//35 27//27
f 28//28 32//32 27//27
f 54//54 40//40 31//31
f 34//34 4//4 33//33
f 34//34 29//29 4//4
f 36//36 26//26 27//27
f 30//30 3//3 4//4
f 4//4 62//62 60//60
f 4//4 5//5 62//62
f 63//63 51//51 25//25
f 63//63 25//25 64//64
f 55//55 51//51 63//63
f 55//55 63//63 16//16
f 40//40 54//54 65//65
f 65//65 54//54 7//7
f 65//65 62//62 66//66
f 65//65 66//66 67//67
f 1//1 68//68 16//16
f 68//68 1//1 62//62
f 68//68 62//62 65//65
f 7//7 55//55 68//68
f 7//7 68//68 65//65
f 55//55 16//16 68//68
f 55//55 24//24 51//51
f 55//55 6//6 24//24
f 40//40 65//65 67//67
f 4//4 16//16 63//63
f 4//4 63//63 64//64
f 27//27 4//4 64//64
f 27//27 64//64 69//69
f 64//64 37//37 69//69
f 64//64 25//25 37//37
f 71//71 73//73 72//72
f 74//74 76//76 75//75
f 84//84 78//78 77//77
f 81//81 80//80 79//79
f 102//102 103//103 100//100
f 81//81 83//83 82//82
f 84//84 86//86 85//85
f 84//84 88//88 87//87
f 84//84 90//90 89//89
f 71//71 92//92 91//91
f 97//97 94//94 93//93
f 97//97 71//71 94//94
f 97//97 96//96 95//95
f 97//97 99//99 98//98
f 102//102 100//100 37//37
f 104//104 27//27 105//105
f 108//108 110//110 109//109
f 108//108 111//111 110//110
f 112//112 27//27 113//113
f 76//76 115//115 114//114
f 81//81 117//117 116//116
f 120//120 118//118 102//102
f 97//97 122//122 121//121
f 97//97 124//124 123//123
f 71//71 126//126 125//125
f 81//81 79//79 127//127
f 84//84 129//129 128//128
f 84//84 131//131 130//130
f 84//84 133//133 132//132
f 84//84 134//134 133//133
f 107//107 56//56 70//70
f 97//97 136//136 135//135
f 76//76 135//135 115//115
f 76//76 97//97 135//135
f 84//84 132//132 86//86
f 84//84 130//130 88//88
f 84//84 128//128 90//90
f 81//81 127//127 117//117
f 71//71 125//125 94//94
f 97//97 123//123 96//96
f 97//97 121//121 99//99
f 120//120 101//101 118//118
f 81//81 116//116 83//83
f 76//76 114//114 137//137
f 102//102 118//118 103//103
f 97//97 98//98 136//136
f 97//97 95//95 122//122
f 97//97 93//93 124//124
f 71//71 91//91 126//126
f 84//84 89//89 78//78
f 84//84 87//87 129//129
f 84//84 85//85 131//131
f 134//134 82//82 133//133
f 134//134 81//81 82//82
f 84//84 77//77 138//138
f 71//71 72//72 92//92
f 61//61 27//27 112//112
f 105//105 111//111 108//108
f 105//105 27//27 111//111
f 81//81 107//107 70//70
f 109//109 76//76 106//106
f 109//109 110//110 76//76
f 113//113 27//27 104//104
f 106//106 76//76 74//74
f 76//76 139//139 75//75
f 76//76 137//137 139//139
f 140//140 103//103 101//101
f 140//140 69//69 103//103
f 140//140 73//73 71//71
f 119//119 140//140 101//101
f 70//70 141//141 81//81
f 141//141 80//80 81//81
f 141//141 142//142 139//139
f 141//141 143//143 142//142
f 73//73 140//140 119//119
f 119//119 139//139 73//73
f 119//119 141//141 139//139
f 80//80 119//119 138//138
f 80//80 141//141 119//119
f 119//119 120//120 84//84
f 119//119 101//101 120//120
f 144//144 141//141 70//70
f 144//144 143//143 141//141
f 138//138 119//119 84//84
f 76//76 140//140 71//71
f 76//76 69//69 140//140
f 27//27 69//69 76//76
f 69//69 37//37 103//103
f 54//54 146//146 145//145
f 54//54 56//56 146//146
f 6//6 54//54 145//145
f 6//6 145//145 147//147
f 6//6 147//147 148//148
f 54//54 84//84 56//56
f 54//54 6//6 84//84
f 84//84 6//6 148//148
f 84//84 148//148 149//149
f 149//149 148//148 147//147
f 149//149 147//147 150//150
f 81//81 146//146 56//56
f 84//84 146//146 81//81
f 84//84 151//151 146//146
f 84//84 149//149 151//151
f 81//81 56//56 84//84
f 149//149 150//150 151//151
f 152//152 154//154 153//153
f 152//152 155//155 154//154
f 155//155 156//156 154//154
f 155//155 157//157 156//156
f 156//156 157//157 158//158
f 156//156 158//158 159//159
f 160//160 152//152 153//153
f 160//160 153//153 161//161
f 160//160 161//161 162//162
f 152//152 157//157 155//155
f 152//152 160//160 157//157
f 157//157 160//160 162//162
f 157//157 162//162 158//158
f 158//158 162//162 161//161
f 158//158 161//161 159//159
f 163//163 154//154 155//155
f 163//163 164//164 154//154
f 165//165 164//164 163//163
f 165//165 166//166 164//164
f 165//165 167//167 166//166
f 163//163 155//155 157//157
f 163//163 157//157 165//165
f 157//157 167//167 165//165
f 157//157 158//158 167//167
f 158//158 166//166 167//167
f 158//158 159//159 166//166
